<svg width="64" height="64" viewBox="0 0 64 64" fill="none" xmlns="http://www.w3.org/2000/svg">
<path d="M20.7997 5.3335H43.1997C51.733 5.3335 58.6663 12.2668 58.6663 20.8002V43.2002C58.6663 47.3022 57.0368 51.2362 54.1363 54.1367C51.2357 57.0373 47.3017 58.6668 43.1997 58.6668H20.7997C12.2663 58.6668 5.33301 51.7335 5.33301 43.2002V20.8002C5.33301 16.6981 6.96253 12.7641 9.86309 9.86358C12.7637 6.96302 16.6977 5.3335 20.7997 5.3335ZM20.2663 10.6668C17.7203 10.6668 15.2785 11.6783 13.4781 13.4786C11.6778 15.279 10.6663 17.7208 10.6663 20.2668V43.7335C10.6663 49.0402 14.9597 53.3335 20.2663 53.3335H43.733C46.2791 53.3335 48.7209 52.3221 50.5212 50.5217C52.3216 48.7214 53.333 46.2796 53.333 43.7335V20.2668C53.333 14.9602 49.0397 10.6668 43.733 10.6668H20.2663ZM45.9997 14.6668C46.8837 14.6668 47.7316 15.018 48.3567 15.6431C48.9818 16.2683 49.333 17.1161 49.333 18.0002C49.333 18.8842 48.9818 19.7321 48.3567 20.3572C47.7316 20.9823 46.8837 21.3335 45.9997 21.3335C45.1156 21.3335 44.2678 20.9823 43.6426 20.3572C43.0175 19.7321 42.6663 18.8842 42.6663 18.0002C42.6663 17.1161 43.0175 16.2683 43.6426 15.6431C44.2678 15.018 45.1156 14.6668 45.9997 14.6668ZM31.9997 18.6668C35.5359 18.6668 38.9273 20.0716 41.4278 22.5721C43.9282 25.0726 45.333 28.4639 45.333 32.0002C45.333 35.5364 43.9282 38.9278 41.4278 41.4283C38.9273 43.9287 35.5359 45.3335 31.9997 45.3335C28.4635 45.3335 25.0721 43.9287 22.5716 41.4283C20.0711 38.9278 18.6663 35.5364 18.6663 32.0002C18.6663 28.4639 20.0711 25.0726 22.5716 22.5721C25.0721 20.0716 28.4635 18.6668 31.9997 18.6668ZM31.9997 24.0002C29.8779 24.0002 27.8431 24.843 26.3428 26.3433C24.8425 27.8436 23.9997 29.8784 23.9997 32.0002C23.9997 34.1219 24.8425 36.1567 26.3428 37.657C27.8431 39.1573 29.8779 40.0002 31.9997 40.0002C34.1214 40.0002 36.1562 39.1573 37.6565 37.657C39.1568 36.1567 39.9997 34.1219 39.9997 32.0002C39.9997 29.8784 39.1568 27.8436 37.6565 26.3433C36.1562 24.843 34.1214 24.0002 31.9997 24.0002Z" fill="#1F8F69"/>
</svg>
