<svg width="64" height="64" viewBox="0 0 64 64" fill="none" xmlns="http://www.w3.org/2000/svg">
<path d="M18 44L24 52M30.4 35.2C29.6548 34.2064 28.6886 33.4 27.5777 32.8446C26.4669 32.2892 25.242 32 24 32H16C12.287 32 8.72601 33.475 6.10051 36.1005C3.475 38.726 2 42.287 2 46C2 49.713 3.475 53.274 6.10051 55.8995C8.72601 58.525 12.287 60 16 60H56C57.5913 60 59.1174 59.3679 60.2426 58.2426C61.3679 57.1174 62 55.5913 62 54C62 52.4087 61.3679 50.8826 60.2426 49.7574C59.1174 48.6321 57.5913 48 56 48H44C42.758 48 41.5331 47.7108 40.4223 47.1554C39.3114 46.6 38.3452 45.7936 37.6 44.8L30.4 35.2Z" stroke="black" stroke-width="1.5" stroke-linecap="round" stroke-linejoin="round"/>
<path d="M35.8213 42.4293L40.9467 23.8587C41.2491 22.7503 41.9076 21.772 42.8208 21.0748C43.734 20.3775 44.8511 19.9998 46 20H54C56.1217 20 58.1566 19.1571 59.6569 17.6569C61.1571 16.1566 62 14.1217 62 12C62 9.87827 61.1571 7.84344 59.6569 6.34315C58.1566 4.84285 56.1217 4 54 4H38M6 20H22M12 20L20 32" stroke="black" stroke-width="1.5" stroke-linecap="round" stroke-linejoin="round"/>
</svg>
